<?xml version="1.0" encoding="UTF-8" standalone="no"?>
<!-- Creator: CorelDRAW -->

<svg
   xmlns:dc="http://purl.org/dc/elements/1.1/"
   xmlns:cc="http://creativecommons.org/ns#"
   xmlns:rdf="http://www.w3.org/1999/02/22-rdf-syntax-ns#"
   xmlns:svg="http://www.w3.org/2000/svg"
   xmlns="http://www.w3.org/2000/svg"
   xmlns:sodipodi="http://sodipodi.sourceforge.net/DTD/sodipodi-0.dtd"
   xmlns:inkscape="http://www.inkscape.org/namespaces/inkscape"
   xml:space="preserve"
   width="73.398598mm"
   height="23.619101mm"
   style="clip-rule:evenodd;fill-rule:evenodd;image-rendering:optimizeQuality;shape-rendering:geometricPrecision;text-rendering:geometricPrecision"
   viewBox="0 0 73.398598 23.619101"
   version="1.1"
   id="svg3785"
   sodipodi:docname="owug_logo_2017.svg"
   inkscape:version="0.92.1 r15371"><metadata
     id="metadata3789"><rdf:RDF><cc:Work
         rdf:about=""><dc:format>image/svg+xml</dc:format><dc:type
           rdf:resource="http://purl.org/dc/dcmitype/StillImage" /></cc:Work></rdf:RDF></metadata><sodipodi:namedview
     pagecolor="#ffffff"
     bordercolor="#666666"
     borderopacity="1"
     objecttolerance="10"
     gridtolerance="10"
     guidetolerance="10"
     inkscape:pageopacity="0"
     inkscape:pageshadow="2"
     inkscape:window-width="1920"
     inkscape:window-height="1017"
     id="namedview3787"
     showgrid="false"
     inkscape:zoom="6.4705198"
     inkscape:cx="141.53746"
     inkscape:cy="39.460387"
     inkscape:window-x="-8"
     inkscape:window-y="-8"
     inkscape:window-maximized="1"
     inkscape:current-layer="Ebene_x0020_1" /><defs
     id="defs3703"><style
       type="text/css"
       id="style3701"><![CDATA[
    .fil1 {fill:black}
    .fil0 {fill:#17C7E3}
    .fil2 {fill:white}
   ]]></style></defs><g
     id="Ebene_x0020_1"
     transform="translate(-7.2646,-227.3393)"><metadata
       id="CorelCorpID_0Corel-Layer" /><path
       class="fil0"
       d="m 24.0711,243.119 c 2.1839,0 3.9542,1.6626 3.9542,3.7136 0,2.0509 -1.7703,3.7135 -3.9542,3.7135 h 0.2997 c -2.1839,0 -3.9542,-1.6626 -3.9542,-3.7135 0,-2.051 1.7703,-3.7137 3.9542,-3.7137 z"
       id="path3706"
       inkscape:connector-curvature="0"
       style="fill:#0072ac;fill-opacity:1" /><path
       class="fil0"
       d="m 14.7261,241.352 c 1.9655,0 3.5587,1.4964 3.5587,3.3422 0,1.8459 -1.5932,3.3422 -3.5587,3.3422 h 0.2697 c -1.9655,0 -3.5588,-1.4964 -3.5588,-3.3421 0,-1.8459 1.5933,-3.3422 3.5588,-3.3422 z"
       id="path3708"
       inkscape:connector-curvature="0"
       style="fill:#0072ac;fill-opacity:1" /><path
       class="fil0"
       d="m 9.9287,235.185 c 1.5919,0 2.8826,1.212 2.8826,2.707 0,1.4952 -1.2907,2.7072 -2.8826,2.7072 l 0.2184,-1e-4 c -1.592,0 -2.8825,-1.212 -2.8825,-2.7071 0,-1.495 1.2905,-2.7071 2.8825,-2.7071 z"
       id="path3710"
       inkscape:connector-curvature="0"
       style="fill:#0072ac;fill-opacity:1" /><path
       class="fil0"
       d="m 11.8387,229.117 c 1.1607,0 2.1014,0.8835 2.1014,1.9734 0,1.0899 -0.9407,1.9735 -2.1014,1.9735 h 0.1594 c -1.1607,0 -2.1015,-0.8836 -2.1015,-1.9735 0,-1.0899 0.9408,-1.9734 2.1014,-1.9734 z"
       id="path3712"
       inkscape:connector-curvature="0"
       style="fill:#0072ac;fill-opacity:1" /><path
       class="fil1"
       d="m 20.3616,231.462 c -0.7005,0 -1.3431,-0.5613 -1.3431,-1.947 0,-1.4374 0.6999,-1.9487 1.3431,-1.9487 0.6432,0 1.343,0.5113 1.343,1.9487 10e-5,1.3856 -0.6432,1.947 -1.343,1.947 z m 0.0426,0.2277 c 1.1406,0 2.0609,-0.8259 2.0609,-2.1685 0,-1.4498 -1.0284,-2.1819 -2.0609,-2.1819 -1.0349,0 -2.0627,0.7322 -2.0627,2.1819 10e-5,1.3426 0.9214,2.1686 2.0627,2.1685 z"
       id="path3714"
       inkscape:connector-curvature="0"
       style="fill:#000000" /><path
       class="fil1"
       d="m 23.8771,228.489 c 0,-0.1763 0.0692,-0.1818 0.2577,-0.1818 0.2775,0 1.1978,0.0106 1.1978,0.7775 0,0.8133 -0.8443,0.8133 -1.0781,0.8133 -0.1306,0 -0.2581,-0.004 -0.3774,-0.0153 z m -1.1511,-0.2775 c 0.4595,0.0372 0.529,0.1012 0.529,0.4812 v 2.3207 c 0,0.3858 0,0.5085 -0.5291,0.5409 l 10e-5,0.1016 h 1.7643 v -0.1016 c -0.4854,-0.0113 -0.5924,-0.0906 -0.5924,-0.4823 v -0.9752 c 0.1517,0.0113 0.271,0.0157 0.4217,0.0157 0.6626,0 1.0659,-0.0961 1.3366,-0.3157 0.1069,-0.0859 0.3855,-0.3054 0.3855,-0.7229 0,-0.6817 -0.7823,-0.9646 -1.6522,-0.9646 H 22.726 Z"
       id="path3716"
       inkscape:connector-curvature="0"
       style="fill:#000000" /><path
       class="fil1"
       d="m 29.529,231.656 h -3.4038 v -0.1016 c 0.4029,-0.0211 0.5488,-0.0705 0.5488,-0.4823 v -2.3793 c 0,-0.4226 -0.1517,-0.456 -0.5488,-0.4812 v -0.1022 h 3.3465 l 0.019,0.7654 h -0.1571 c -0.0944,-0.4764 -0.2584,-0.562 -0.9582,-0.562 h -0.8512 c -0.1323,0 -0.2069,0 -0.2069,0.1817 v 1.1899 h 0.9701 c 0.5598,0 0.6245,-0.1291 0.6931,-0.5089 h 0.1458 v 1.2432 h -0.1458 c -0.0747,-0.4282 -0.1705,-0.5039 -0.6931,-0.5096 l -0.9701,-0.011 v 1.3288 c 0,0.2194 0,0.2257 0.9388,0.2257 0.7877,0 1.1027,-0.161 1.3808,-0.7026 h 0.1757 z"
       id="path3718"
       inkscape:connector-curvature="0"
       style="fill:#000000" /><path
       class="fil1"
       d="m 34.3279,228.211 c -0.3975,0.0372 -0.599,0.0586 -0.599,0.6854 l 10e-5,2.8183 h -0.1068 l -2.7737,-2.9369 h -0.0133 v 2.0892 c 0,0.5532 0.1333,0.6704 0.5931,0.6868 v 0.1016 h -1.4825 v -0.1016 c 0.4799,-0.0266 0.6123,-0.1081 0.6123,-0.6868 v -2.3626 C 30.3,228.2362 30.1987,228.211 29.9458,228.211 v -0.1022 h 1.0785 l 2.4146,2.5762 h 0.0125 v -1.7886 c 0,-0.6169 -0.1765,-0.6602 -0.6047,-0.6854 v -0.1022 h 1.4812 z"
       id="path3720"
       inkscape:connector-curvature="0"
       style="fill:#000000" /><path
       class="fil1"
       d="m 38.244,231.656 h -1.9929 v -0.1008 c 0.6208,-0.0269 0.6412,-0.1844 0.6729,-0.6882 l 1e-4,-3.1428 h -0.4739 c -0.7513,0 -0.9347,0.1313 -1.0843,0.8736 h -0.1644 l 0.0409,-1.1296 h 3.9973 l 0.0402,1.1296 H 39.118 c -0.1446,-0.7508 -0.3365,-0.8736 -1.0858,-0.8736 h -0.4435 v 3.2171 c 0,0.4642 0.0808,0.5935 0.6553,0.6139 z"
       id="path3722"
       inkscape:connector-curvature="0"
       style="fill:#000000" /><path
       class="fil1"
       d="m 42.9144,231.656 h -3.4041 v -0.1016 c 0.4036,-0.0211 0.5478,-0.0705 0.5478,-0.4823 v -2.3793 c 0,-0.4226 -0.152,-0.456 -0.5478,-0.4812 v -0.1022 h 3.3472 l 0.0187,0.7654 H 42.718 c -0.0938,-0.4764 -0.257,-0.562 -0.9575,-0.562 h -0.8519 c -0.1316,0 -0.2076,0 -0.2076,0.1817 v 1.1899 h 0.9702 c 0.5617,0 0.6244,-0.1291 0.6947,-0.5089 h 0.1452 v 1.2432 h -0.1452 c -0.0754,-0.4282 -0.1715,-0.5039 -0.6947,-0.5096 l -0.9702,-0.011 v 1.3288 c 0,0.2194 0,0.2257 0.9402,0.2257 0.7867,0 1.1027,-0.161 1.3795,-0.7026 h 0.1776 z"
       id="path3724"
       inkscape:connector-curvature="0"
       style="fill:#000000" /><path
       class="fil1"
       d="m 47.5695,228.211 c -0.3344,0.0204 -0.4984,0.0372 -0.9405,0.5027 l -0.9194,0.9749 1.2101,1.4688 c 0.2465,0.2946 0.3719,0.3698 0.7012,0.3964 v 0.1016 h -1.8745 v -0.1016 c 0.3151,-0.0164 0.4858,-0.0164 0.4858,-0.182 0,-0.0968 -0.2209,-0.3848 -0.3215,-0.51 l -0.5989,-0.7498 -0.7496,0.7931 c -0.1323,0.1402 -0.3276,0.3494 -0.3276,0.4507 0,0.1714 0.2328,0.1867 0.4792,0.198 v 0.1016 H 43.244 v -0.1016 c 0.3467,-0.0211 0.4163,-0.0906 0.9156,-0.6111 l 0.9885,-1.0342 -0.6872,-0.8573 c -0.6429,-0.803 -0.7755,-0.815 -1.1412,-0.8402 v -0.1022 h 1.9048 v 0.1022 c -0.3293,0.004 -0.4797,0.01 -0.4797,0.1708 0,0.1067 0.1136,0.2839 0.5356,0.7931 l 0.2648,0.316 0.7132,-0.739 c 0.1439,-0.1565 0.2516,-0.2634 0.2516,-0.364 0,-0.1671 -0.2274,-0.1728 -0.4411,-0.1769 v -0.1022 h 1.5006 z"
       id="path3726"
       inkscape:connector-curvature="0"
       style="fill:#000000" /><path
       class="fil1"
       d="m 50.4336,231.656 h -1.8408 v -0.1016 c 0.5734,-0.0211 0.5924,-0.1455 0.5924,-0.5409 v -2.6802 h -0.2338 c -0.6937,0 -0.8638,0.1029 -1.0029,0.6868 h -0.1524 l 0.0379,-0.9107 h 3.3441 l 0.0374,0.9107 h -0.1523 c -0.1309,-0.5903 -0.3086,-0.6868 -1.0012,-0.6868 h -0.2342 v 2.7388 c 0,0.3647 0.075,0.4659 0.6058,0.4823 z"
       id="path3728"
       inkscape:connector-curvature="0"
       style="fill:#000000" /><path
       class="fil1"
       d="m 51.7019,228.179 h -0.1155 v 0.3181 h -0.0733 v -0.3181 h -0.1152 v -0.0593 h 0.304 z m 0.2867,0.2079 0.1027,-0.2672 h 0.1053 v 0.3774 h -0.0689 v -0.295 H 52.126 l -0.1125,0.295 h -0.0514 l -0.1125,-0.295 h -0.002 v 0.295 H 51.779 v -0.3774 h 0.1064 z"
       id="path3730"
       inkscape:connector-curvature="0"
       style="fill:#000000" /><polygon
       class="fil1"
       points="20.7081,239.086 20.7263,239.086 22.0378,234.113 23.2037,234.113 24.4882,239.086 24.5066,239.086 25.7265,234.113 26.8651,234.113 25.0708,240.616 23.9322,240.616 22.6117,235.643 22.5934,235.643 21.2637,240.616 20.0887,240.616 18.3764,234.113 19.5149,234.113 "
       id="polygon3732"
       style="fill:#000000" /><path
       class="fil1"
       d="m 30.5625,237.847 c -0.0121,-0.1639 -0.0471,-0.3217 -0.1048,-0.4736 -0.0576,-0.1518 -0.1367,-0.2838 -0.2369,-0.3961 -0.1001,-0.1124 -0.2215,-0.2034 -0.3642,-0.2733 -0.1427,-0.0699 -0.3021,-0.1047 -0.4782,-0.1047 -0.1822,0 -0.3476,0.0319 -0.4964,0.0957 -0.1487,0.0637 -0.2762,0.1517 -0.3825,0.264 -0.1062,0.1124 -0.1912,0.2444 -0.2551,0.3963 -0.0637,0.1517 -0.0986,0.3157 -0.1047,0.4917 z m -2.4228,0.6831 c 0,0.1822 0.0259,0.3583 0.0774,0.5283 0.0516,0.17 0.1291,0.3187 0.2323,0.4462 0.1032,0.1276 0.2338,0.2292 0.3917,0.3051 0.1579,0.0759 0.346,0.1139 0.5646,0.1139 0.3036,0 0.548,-0.0653 0.7332,-0.1959 0.1853,-0.1305 0.3234,-0.3263 0.4144,-0.5874 h 0.9837 c -0.0546,0.255 -0.1487,0.4827 -0.2824,0.6831 -0.1335,0.2004 -0.2945,0.3689 -0.4827,0.5055 -0.1882,0.1365 -0.3992,0.2399 -0.633,0.3096 -0.2337,0.0698 -0.4781,0.1048 -0.7332,0.1048 -0.3703,0 -0.6982,-0.0607 -0.9836,-0.1822 -0.2854,-0.1214 -0.5267,-0.2914 -0.7241,-0.51 -0.1974,-0.2186 -0.3461,-0.4797 -0.4463,-0.7833 -0.1001,-0.3036 -0.1503,-0.6375 -0.1503,-1.0018 0,-0.3339 0.0531,-0.6512 0.1594,-0.9517 0.1063,-0.3005 0.2581,-0.5647 0.4555,-0.7925 0.1972,-0.2276 0.4356,-0.4082 0.7149,-0.5418 0.2794,-0.1336 0.595,-0.2004 0.9472,-0.2004 0.3704,0 0.7029,0.0775 0.9973,0.2322 0.2945,0.1549 0.5389,0.3598 0.7332,0.6148 0.1943,0.2551 0.3355,0.548 0.4236,0.8789 0.088,0.3309 0.1107,0.6724 0.0683,1.0246 z"
       id="path3734"
       inkscape:connector-curvature="0"
       style="fill:#000000" /><path
       class="fil1"
       d="m 32.4118,234.113 h 1.0383 v 2.4044 h 0.0181 c 0.0729,-0.1153 0.1609,-0.2186 0.2642,-0.3096 0.1032,-0.0911 0.217,-0.1686 0.3415,-0.2323 0.1244,-0.0637 0.255,-0.1123 0.3916,-0.1457 0.1367,-0.0334 0.2718,-0.0501 0.4054,-0.0501 0.3704,0 0.6937,0.0653 0.97,0.1958 0.2762,0.1306 0.5054,0.3096 0.6876,0.5374 0.1822,0.2276 0.3188,0.4933 0.4098,0.7969 0.0912,0.3036 0.1367,0.6285 0.1367,0.9745 0,0.3158 -0.041,0.6224 -0.123,0.9199 -0.082,0.2975 -0.2064,0.5601 -0.3734,0.7878 -0.167,0.2277 -0.378,0.4099 -0.633,0.5465 -0.255,0.1366 -0.5556,0.2049 -0.9017,0.2049 -0.1579,0 -0.3172,-0.0106 -0.4781,-0.0319 -0.161,-0.0213 -0.3142,-0.0622 -0.46,-0.123 -0.1458,-0.0607 -0.2778,-0.1396 -0.3962,-0.2367 -0.1185,-0.0972 -0.2171,-0.2247 -0.296,-0.3825 h -0.0182 v 0.6465 h -0.9836 z m 3.6249,4.1531 c 0,-0.2126 -0.0273,-0.419 -0.082,-0.6194 -0.0547,-0.2003 -0.1367,-0.3779 -0.2459,-0.5327 -0.1093,-0.1549 -0.2459,-0.2794 -0.4099,-0.3735 -0.1639,-0.094 -0.3522,-0.1411 -0.5647,-0.1411 -0.4371,0 -0.7666,0.1519 -0.9882,0.4554 -0.2216,0.3036 -0.3324,0.7074 -0.3324,1.2113 0,0.2367 0.0288,0.4569 0.0865,0.6603 0.0577,0.2034 0.1443,0.378 0.2595,0.5237 0.1155,0.1457 0.2536,0.2611 0.4145,0.3461 0.1609,0.085 0.3476,0.1275 0.5601,0.1275 0.2369,0 0.4372,-0.0486 0.6011,-0.1458 0.1639,-0.0971 0.2991,-0.2231 0.4054,-0.3779 0.1063,-0.1548 0.1822,-0.3309 0.2276,-0.5283 0.0456,-0.1973 0.0684,-0.3992 0.0684,-0.6056 z"
       id="path3736"
       inkscape:connector-curvature="0"
       style="fill:#000000" /><path
       class="fil1"
       d="m 41.361,238.448 c 0,0.249 0.0425,0.4615 0.1276,0.6376 0.085,0.1761 0.2034,0.3203 0.3551,0.4326 0.1519,0.1124 0.3265,0.1943 0.5238,0.2459 0.1973,0.0516 0.4114,0.0774 0.6421,0.0774 0.2489,0 0.4615,-0.0288 0.6376,-0.0865 0.1761,-0.0577 0.3187,-0.1321 0.428,-0.2231 0.1093,-0.0911 0.1882,-0.1959 0.2369,-0.3142 0.0485,-0.1184 0.0728,-0.2384 0.0728,-0.3598 0,-0.249 -0.0562,-0.4326 -0.1685,-0.551 -0.1123,-0.1184 -0.2352,-0.2019 -0.3689,-0.2505 -0.2307,-0.0851 -0.4994,-0.1654 -0.806,-0.2413 -0.3067,-0.076 -0.6847,-0.1746 -1.1339,-0.296 -0.2793,-0.0729 -0.5116,-0.1685 -0.6968,-0.2869 -0.1852,-0.1184 -0.3325,-0.2505 -0.4418,-0.3962 -0.1093,-0.1457 -0.1866,-0.3006 -0.2322,-0.4645 -0.0456,-0.1639 -0.0683,-0.331 -0.0683,-0.5009 0,-0.3279 0.0683,-0.6117 0.2049,-0.8516 0.1367,-0.2398 0.3173,-0.4387 0.542,-0.5966 0.2247,-0.1578 0.4796,-0.2747 0.7649,-0.3506 0.2855,-0.0759 0.5739,-0.1139 0.8653,-0.1139 0.3401,0 0.6604,0.0441 0.9609,0.1321 0.3006,0.0881 0.5647,0.2201 0.7924,0.3962 0.2277,0.1761 0.4084,0.3931 0.5419,0.6512 0.1336,0.2581 0.2004,0.5571 0.2004,0.8971 h -1.1385 c -0.0303,-0.419 -0.173,-0.7149 -0.428,-0.888 -0.2551,-0.173 -0.5799,-0.2595 -0.9746,-0.2595 -0.1335,0 -0.2702,0.0137 -0.4098,0.0409 -0.1397,0.0274 -0.2672,0.0729 -0.3826,0.1367 -0.1153,0.0636 -0.211,0.1502 -0.2869,0.2595 -0.0759,0.1093 -0.1138,0.246 -0.1138,0.4099 0,0.2307 0.0714,0.4113 0.214,0.5419 0.1427,0.1306 0.3294,0.2292 0.5601,0.2959 0.0244,0.006 0.12,0.0319 0.287,0.0775 0.167,0.0456 0.3536,0.0956 0.5601,0.1503 0.2064,0.0546 0.4084,0.1077 0.6056,0.1593 0.1974,0.0517 0.3386,0.0896 0.4236,0.1139 0.2125,0.0668 0.3977,0.1579 0.5556,0.2732 0.1579,0.1154 0.2899,0.2475 0.3962,0.3962 0.1063,0.1488 0.1852,0.3082 0.2368,0.4781 0.0516,0.17 0.0774,0.3401 0.0774,0.5101 0,0.3643 -0.0744,0.6755 -0.2231,0.9335 -0.1488,0.2581 -0.3446,0.4691 -0.5875,0.633 -0.2429,0.164 -0.5191,0.2839 -0.8289,0.3597 -0.3096,0.076 -0.6254,0.1139 -0.9472,0.1139 -0.3703,0 -0.7195,-0.0455 -1.0474,-0.1366 -0.3279,-0.0911 -0.6132,-0.2308 -0.8561,-0.419 -0.2429,-0.1882 -0.4372,-0.4295 -0.5829,-0.724 -0.1458,-0.2946 -0.2217,-0.6421 -0.2278,-1.0429 z"
       id="path3738"
       inkscape:connector-curvature="0"
       style="fill:#000000" /><path
       class="fil1"
       d="m 48.5388,240.744 c -0.3764,0 -0.7119,-0.0622 -1.0064,-0.1867 -0.2945,-0.1245 -0.5435,-0.296 -0.7468,-0.5146 -0.2035,-0.2186 -0.3583,-0.4796 -0.4645,-0.7833 -0.1063,-0.3035 -0.1595,-0.6375 -0.1595,-1.0018 0,-0.3583 0.0532,-0.6892 0.1595,-0.9928 0.1062,-0.3036 0.261,-0.5646 0.4645,-0.7832 0.2033,-0.2186 0.4522,-0.3902 0.7468,-0.5146 0.2945,-0.1245 0.6299,-0.1867 1.0064,-0.1867 0.3765,0 0.712,0.0622 1.0065,0.1867 0.2945,0.1244 0.5434,0.296 0.7468,0.5146 0.2035,0.2186 0.3582,0.4796 0.4645,0.7832 0.1063,0.3036 0.1594,0.6345 0.1594,0.9928 0,0.3643 -0.0531,0.6983 -0.1594,1.0018 -0.1063,0.3037 -0.261,0.5647 -0.4645,0.7833 -0.2033,0.2186 -0.4523,0.3901 -0.7468,0.5146 -0.2945,0.1245 -0.63,0.1867 -1.0065,0.1867 z m 0,-0.8197 c 0.2308,0 0.4311,-0.0486 0.6011,-0.1458 0.17,-0.0971 0.3097,-0.2246 0.419,-0.3824 0.1094,-0.1579 0.1898,-0.3356 0.2414,-0.5328 0.0516,-0.1974 0.0774,-0.3992 0.0774,-0.6057 0,-0.2004 -0.0258,-0.4007 -0.0774,-0.6011 -0.0516,-0.2004 -0.1321,-0.378 -0.2414,-0.5328 -0.1093,-0.1548 -0.249,-0.2808 -0.419,-0.378 -0.17,-0.0972 -0.3704,-0.1457 -0.6011,-0.1457 -0.2307,0 -0.4311,0.0485 -0.6011,0.1457 -0.1699,0.0971 -0.3097,0.2232 -0.4189,0.378 -0.1093,0.1548 -0.1898,0.3324 -0.2414,0.5328 -0.0516,0.2004 -0.0774,0.4007 -0.0774,0.6011 0,0.2065 0.0257,0.4083 0.0774,0.6057 0.0516,0.1972 0.1321,0.3749 0.2414,0.5328 0.1093,0.1578 0.2489,0.2853 0.4189,0.3824 0.17,0.0972 0.3704,0.1458 0.6011,0.1458 z"
       id="path3740"
       inkscape:connector-curvature="0"
       style="fill:#000000" /><polygon
       class="fil1"
       points="52.8562,240.616 51.818,240.616 51.818,234.113 52.8562,234.113 "
       id="polygon3742"
       style="fill:#000000" /><path
       class="fil1"
       d="m 58.1189,240.616 h -1.0201 v -0.6557 h -0.0181 c -0.1276,0.2368 -0.3173,0.4266 -0.5693,0.5693 -0.252,0.1426 -0.5085,0.214 -0.7696,0.214 -0.6193,0 -1.0672,-0.1534 -1.3435,-0.4599 -0.2762,-0.3067 -0.4144,-0.7697 -0.4144,-1.3889 v -2.9874 h 1.0384 v 2.8872 c 0,0.4128 0.0788,0.7043 0.2368,0.8743 0.1578,0.17 0.3794,0.255 0.6648,0.255 0.2187,0 0.4007,-0.0334 0.5465,-0.1002 0.1457,-0.0667 0.2641,-0.1564 0.3552,-0.2687 0.0911,-0.1123 0.1564,-0.2474 0.1958,-0.4052 0.0395,-0.158 0.0593,-0.328 0.0593,-0.5101 v -2.7323 h 1.0382 z"
       id="path3744"
       inkscape:connector-curvature="0"
       style="fill:#000000" /><path
       class="fil1"
       d="m 58.7326,235.907 h 0.7833 v -1.4117 h 1.0383 v 1.4117 h 0.9382 v 0.7742 h -0.9382 v 2.5137 c 0,0.1093 0.0045,0.2034 0.0137,0.2823 0.0091,0.079 0.0304,0.1457 0.0637,0.2003 0.0335,0.0547 0.0835,0.0957 0.1503,0.1231 0.0668,0.0272 0.1579,0.0409 0.2732,0.0409 0.0729,0 0.1457,-0.001 0.2187,-0.005 0.0728,-0.003 0.1457,-0.0137 0.2186,-0.0319 v 0.8015 c -0.1155,0.0121 -0.2278,0.0243 -0.3371,0.0364 -0.1093,0.0122 -0.2216,0.0182 -0.337,0.0182 -0.2732,0 -0.4934,-0.0258 -0.6603,-0.0774 -0.1669,-0.0516 -0.2975,-0.1275 -0.3917,-0.2277 -0.0941,-0.1001 -0.1578,-0.2261 -0.1912,-0.378 -0.0334,-0.1518 -0.0532,-0.3249 -0.0592,-0.5192 v -2.7777 h -0.7833 z"
       id="path3746"
       inkscape:connector-curvature="0"
       style="fill:#000000" /><path
       class="fil1"
       d="m 62.2625,234.113 h 1.0384 v 0.9836 h -1.0384 z m 0,1.7942 h 1.0384 v 4.7086 h -1.0384 z"
       id="path3748"
       inkscape:connector-curvature="0"
       style="fill:#000000" /><path
       class="fil1"
       d="m 66.5871,240.744 c -0.3764,0 -0.712,-0.0622 -1.0064,-0.1867 -0.2945,-0.1245 -0.5435,-0.296 -0.7468,-0.5146 -0.2035,-0.2186 -0.3583,-0.4796 -0.4646,-0.7833 -0.1062,-0.3035 -0.1594,-0.6375 -0.1594,-1.0018 10e-5,-0.3583 0.0532,-0.6892 0.1594,-0.9928 0.1063,-0.3036 0.2611,-0.5646 0.4646,-0.7832 0.2033,-0.2186 0.4523,-0.3902 0.7468,-0.5146 0.2944,-0.1245 0.63,-0.1867 1.0064,-0.1867 0.3765,0 0.7119,0.0622 1.0065,0.1867 0.2945,0.1244 0.5434,0.296 0.7468,0.5146 0.2034,0.2186 0.3582,0.4796 0.4645,0.7832 0.1063,0.3036 0.1594,0.6345 0.1594,0.9928 0,0.3643 -0.0531,0.6983 -0.1594,1.0018 -0.1063,0.3037 -0.2611,0.5647 -0.4645,0.7833 -0.2034,0.2186 -0.4523,0.3901 -0.7468,0.5146 -0.2946,0.1245 -0.63,0.1867 -1.0065,0.1867 z m 0,-0.8197 c 0.2308,0 0.4312,-0.0486 0.6012,-0.1458 0.1699,-0.0971 0.3096,-0.2246 0.4189,-0.3824 0.1093,-0.1579 0.1897,-0.3356 0.2413,-0.5328 0.0517,-0.1974 0.0774,-0.3992 0.0774,-0.6057 1e-4,-0.2004 -0.0257,-0.4007 -0.0774,-0.6011 -0.0515,-0.2004 -0.132,-0.378 -0.2413,-0.5328 -0.1093,-0.1548 -0.249,-0.2808 -0.4189,-0.378 -0.17,-0.0972 -0.3704,-0.1457 -0.6012,-0.1457 -0.2307,0 -0.4311,0.0485 -0.6011,0.1457 -0.17,0.0971 -0.3097,0.2232 -0.419,0.378 -0.1093,0.1548 -0.1897,0.3324 -0.2414,0.5328 -0.0515,0.2004 -0.0774,0.4007 -0.0774,0.6011 1e-4,0.2065 0.0259,0.4083 0.0774,0.6057 0.0517,0.1972 0.1321,0.3749 0.2414,0.5328 0.1093,0.1578 0.249,0.2853 0.419,0.3824 0.17,0.0972 0.3704,0.1458 0.6011,0.1458 z"
       id="path3750"
       inkscape:connector-curvature="0"
       style="fill:#000000" /><path
       class="fil1"
       d="m 69.8389,235.907 h 0.9836 v 0.6922 l 0.0183,0.0182 c 0.1577,-0.2611 0.3642,-0.466 0.6193,-0.6147 0.2551,-0.1488 0.5373,-0.2232 0.847,-0.2232 0.5162,0 0.9229,0.1336 1.2205,0.4007 0.2975,0.2672 0.4463,0.6679 0.4463,1.2023 v 3.2331 h -1.0383 v -2.9599 c -0.0122,-0.3704 -0.0912,-0.6391 -0.2368,-0.806 -0.1457,-0.167 -0.3735,-0.2505 -0.6831,-0.2505 -0.1761,0 -0.334,0.0319 -0.4737,0.0957 -0.1395,0.0637 -0.258,0.1517 -0.3552,0.264 -0.0971,0.1124 -0.173,0.2444 -0.2277,0.3963 -0.0546,0.1517 -0.0819,0.3126 -0.0819,0.4827 v 2.7777 h -1.0383 z"
       id="path3752"
       inkscape:connector-curvature="0"
       style="fill:#000000" /><path
       class="fil1"
       d="m 75.8445,239.104 c 0.0304,0.3036 0.1456,0.5161 0.3461,0.6375 0.2003,0.1215 0.4402,0.1822 0.7195,0.1822 0.0971,0 0.2079,-0.008 0.3324,-0.0228 0.1245,-0.0152 0.2414,-0.0439 0.3507,-0.0865 0.1094,-0.0425 0.1973,-0.1032 0.2641,-0.1821 0.0669,-0.079 0.1002,-0.1761 0.1002,-0.2915 0,-0.0122 -0.0016,-0.0546 -0.0045,-0.1275 -0.0031,-0.0729 -0.0501,-0.1518 -0.1413,-0.2368 -0.091,-0.085 -0.2079,-0.1533 -0.3506,-0.205 -0.1427,-0.0515 -0.3051,-0.0955 -0.4873,-0.132 -0.1821,-0.0365 -0.3673,-0.0759 -0.5556,-0.1184 -0.1943,-0.0425 -0.3809,-0.0941 -0.5601,-0.1548 -0.1791,-0.0607 -0.34,-0.1427 -0.4827,-0.2459 -0.1427,-0.1032 -0.2565,-0.2353 -0.3416,-0.3962 -0.0849,-0.1609 -0.1274,-0.3598 -0.1274,-0.5966 0,-0.255 0.0622,-0.469 0.1866,-0.6421 0.1245,-0.173 0.2824,-0.3127 0.4737,-0.4189 0.1913,-0.1063 0.4038,-0.1807 0.6375,-0.2231 0.2338,-0.0425 0.4569,-0.0638 0.6694,-0.0638 0.2429,0 0.4752,0.0258 0.6968,0.0775 0.2217,0.0515 0.422,0.135 0.6012,0.2504 0.1791,0.1153 0.3278,0.2656 0.4462,0.4508 0.1185,0.1852 0.1928,0.4083 0.2232,0.6694 l -1.0839,-1e-4 c -0.0485,-0.2489 -0.1624,-0.4158 -0.3415,-0.5008 -0.1791,-0.085 -0.3841,-0.1275 -0.6148,-0.1275 -0.0728,0 -0.1594,0.006 -0.2596,0.0182 -0.1002,0.0121 -0.1943,0.0349 -0.2823,0.0683 -0.088,0.0334 -0.1625,0.082 -0.2232,0.1458 -0.0607,0.0637 -0.091,0.1471 -0.091,0.2505 0,0.1274 0.044,0.2307 0.1321,0.3095 0.0879,0.079 0.2032,0.1443 0.346,0.1959 0.1427,0.0516 0.3052,0.0956 0.4873,0.1321 0.1822,0.0364 0.3703,0.0759 0.5646,0.1184 0.1883,0.0425 0.3735,0.0941 0.5556,0.1548 0.1823,0.0606 0.3446,0.1426 0.4873,0.2459 0.1428,0.1032 0.2581,0.2337 0.3461,0.3916 0.088,0.1579 0.132,0.3522 0.132,0.5829 0,0.2793 -0.0636,0.5161 -0.1912,0.7104 -0.1275,0.1943 -0.293,0.3522 -0.4963,0.4736 -0.2035,0.1215 -0.4296,0.2095 -0.6786,0.2641 -0.249,0.0546 -0.4949,0.082 -0.7377,0.082 -0.2976,0 -0.5723,-0.0334 -0.8243,-0.1002 -0.2519,-0.0668 -0.4706,-0.1685 -0.6558,-0.305 -0.1851,-0.1367 -0.3309,-0.3067 -0.4371,-0.5102 -0.1063,-0.2033 -0.1624,-0.4447 -0.1686,-0.724 z"
       id="path3754"
       inkscape:connector-curvature="0"
       style="fill:#000000" /><path
       class="fil0"
       d="m 76.2696,242.706 c 2.4266,0 4.3936,1.8474 4.3936,4.1263 0,2.2788 -1.967,4.1261 -4.3936,4.1261 H 34.861 c -2.4266,0 -4.3936,-1.8473 -4.3936,-4.1261 0,-2.279 1.967,-4.1263 4.3936,-4.1263 z"
       id="path3756"
       inkscape:connector-curvature="0"
       style="fill:#0072ac;fill-opacity:1" /><path
       class="fil2"
       d="m 35.1658,244.762 h 0.7056 v 2.348 c 0,0.1355 0.0065,0.2729 0.0197,0.4121 0.0132,0.1392 0.0508,0.2644 0.1129,0.3754 0.0621,0.111 0.1561,0.2023 0.2822,0.2737 0.1261,0.0715 0.3038,0.1073 0.5334,0.1073 0.2295,0 0.4073,-0.0358 0.5334,-0.1073 0.1261,-0.0714 0.2201,-0.1627 0.2822,-0.2737 0.0621,-0.111 0.0997,-0.2362 0.1129,-0.3754 0.0132,-0.1392 0.0197,-0.2765 0.0197,-0.4121 l 10e-5,-2.348 h 0.7055 v 2.5795 c 0,0.2596 -0.0395,0.4854 -0.1186,0.6773 -0.079,0.1918 -0.1909,0.3527 -0.3358,0.4826 -0.1448,0.1299 -0.3189,0.2267 -0.5221,0.2907 -0.2031,0.064 -0.4289,0.0959 -0.6773,0.0959 -0.2483,0 -0.4741,-0.0319 -0.6773,-0.0959 -0.2032,-0.064 -0.3773,-0.1608 -0.5221,-0.2907 -0.1449,-0.1299 -0.2568,-0.2907 -0.3358,-0.4826 -0.0791,-0.1919 -0.1186,-0.4177 -0.1186,-0.6773 z"
       id="path3758"
       inkscape:connector-curvature="0"
       style="fill:#ffffff" /><path
       class="fil2"
       d="m 39.9661,247.856 c 0.0188,0.1881 0.0904,0.3198 0.2145,0.3951 0.1242,0.0752 0.2728,0.1128 0.4458,0.1128 0.0603,0 0.1289,-0.005 0.2061,-0.0141 0.0771,-0.009 0.1496,-0.0273 0.2173,-0.0536 0.0677,-0.0263 0.1223,-0.064 0.1637,-0.1129 0.0414,-0.0489 0.062,-0.1091 0.062,-0.1806 10e-5,-0.008 -9e-4,-0.0339 -0.0027,-0.0791 -0.0019,-0.0452 -0.0311,-0.094 -0.0876,-0.1467 -0.0564,-0.0527 -0.1288,-0.095 -0.2173,-0.127 -0.0883,-0.032 -0.189,-0.0593 -0.3019,-0.0819 -0.1129,-0.0225 -0.2277,-0.047 -0.3444,-0.0733 -0.1204,-0.0263 -0.2361,-0.0584 -0.347,-0.0959 -0.111,-0.0377 -0.2108,-0.0885 -0.2992,-0.1524 -0.0884,-0.064 -0.159,-0.1459 -0.2116,-0.2456 -0.0528,-0.0997 -0.079,-0.223 -0.079,-0.3697 0,-0.158 0.0385,-0.2907 0.1157,-0.398 0.077,-0.1072 0.1749,-0.1937 0.2935,-0.2597 0.1185,-0.0657 0.2501,-0.1118 0.3951,-0.1382 0.1448,-0.0263 0.2831,-0.0395 0.4148,-0.0395 0.1505,0 0.2944,0.016 0.4318,0.048 0.1374,0.032 0.2615,0.0837 0.3725,0.1552 0.111,0.0715 0.2032,0.1646 0.2766,0.2794 0.0733,0.1148 0.1194,0.2531 0.1383,0.4149 h -0.6717 c -0.0301,-0.1543 -0.1007,-0.2577 -0.2117,-0.3104 -0.111,-0.0528 -0.238,-0.0791 -0.381,-0.0791 -0.0451,0 -0.0987,0.004 -0.1608,0.0112 -0.0621,0.008 -0.1205,0.0218 -0.175,0.0424 -0.0545,0.0207 -0.1007,0.0509 -0.1382,0.0903 -0.0377,0.0396 -0.0565,0.0913 -0.0565,0.1553 0,0.079 0.0273,0.143 0.0819,0.1918 0.0545,0.049 0.126,0.0895 0.2144,0.1214 0.0884,0.032 0.1891,0.0593 0.3019,0.0819 0.113,0.0225 0.2296,0.047 0.35,0.0734 0.1166,0.0263 0.2315,0.0583 0.3443,0.0958 0.1129,0.0377 0.2136,0.0885 0.3019,0.1525 0.0885,0.064 0.1601,0.1449 0.2145,0.2427 0.0547,0.0979 0.0819,0.2182 0.0819,0.3612 1e-4,0.1731 -0.0396,0.3199 -0.1186,0.4403 -0.0789,0.1205 -0.1814,0.2183 -0.3075,0.2935 -0.1261,0.0753 -0.2662,0.1299 -0.4205,0.1637 -0.1543,0.0339 -0.3067,0.0508 -0.4572,0.0508 -0.1844,0 -0.3547,-0.0207 -0.5109,-0.0621 -0.1561,-0.0414 -0.2916,-0.1045 -0.4063,-0.1891 -0.1148,-0.0846 -0.2051,-0.1899 -0.2709,-0.3161 -0.0659,-0.126 -0.1007,-0.2756 -0.1044,-0.4486 z"
       id="path3760"
       inkscape:connector-curvature="0"
       style="fill:#ffffff" /><path
       class="fil2"
       d="m 44.6922,247.077 c -0.0075,-0.1016 -0.0291,-0.1994 -0.0649,-0.2936 -0.0357,-0.094 -0.0846,-0.1758 -0.1467,-0.2454 -0.0621,-0.0697 -0.1374,-0.1261 -0.2258,-0.1695 -0.0884,-0.0431 -0.1872,-0.0648 -0.2963,-0.0648 -0.1129,0 -0.2154,0.0197 -0.3077,0.0593 -0.0921,0.0395 -0.1712,0.094 -0.2371,0.1637 -0.0658,0.0696 -0.1185,0.1515 -0.158,0.2455 -0.0395,0.0941 -0.0611,0.1957 -0.0649,0.3048 z m -1.5014,0.4233 c 0,0.1129 0.0161,0.2221 0.048,0.3274 0.032,0.1053 0.08,0.1976 0.1439,0.2766 0.064,0.079 0.145,0.142 0.2427,0.1891 0.0979,0.047 0.2145,0.0705 0.35,0.0705 0.1881,0 0.3396,-0.0404 0.4543,-0.1213 0.1149,-0.0809 0.2004,-0.2023 0.2569,-0.3642 h 0.6096 c -0.0339,0.1582 -0.0922,0.2992 -0.175,0.4234 -0.0828,0.1242 -0.1824,0.2286 -0.2991,0.3133 -0.1167,0.0847 -0.2474,0.1487 -0.3924,0.1919 -0.1448,0.0433 -0.2963,0.0649 -0.4543,0.0649 -0.2295,0 -0.4328,-0.0376 -0.6096,-0.1129 -0.1768,-0.0752 -0.3264,-0.1806 -0.4488,-0.3161 -0.1222,-0.1354 -0.2144,-0.2972 -0.2765,-0.4854 -0.062,-0.1881 -0.0931,-0.3951 -0.0931,-0.6208 0,-0.207 0.0329,-0.4037 0.0988,-0.59 0.0658,-0.1861 0.1599,-0.3499 0.2821,-0.491 0.1224,-0.1412 0.27,-0.253 0.4431,-0.3358 0.1732,-0.0828 0.3688,-0.1242 0.5871,-0.1242 0.2296,0 0.4355,0.048 0.618,0.144 0.1826,0.0959 0.334,0.2229 0.4544,0.381 0.1204,0.158 0.2078,0.3396 0.2624,0.5446 0.0547,0.2051 0.0688,0.4168 0.0424,0.635 z"
       id="path3762"
       inkscape:connector-curvature="0"
       style="fill:#ffffff" /><path
       class="fil2"
       d="m 46.1035,245.874 h 0.6039 v 0.5644 h 0.0113 c 0.0188,-0.079 0.0555,-0.156 0.1101,-0.2313 0.0545,-0.0753 0.1203,-0.144 0.1975,-0.2061 0.0771,-0.062 0.1628,-0.1119 0.2568,-0.1495 0.0941,-0.0376 0.19,-0.0565 0.2879,-0.0565 0.0752,0 0.127,0.002 0.1552,0.006 0.0283,0.004 0.0573,0.008 0.0875,0.0114 l 1e-4,0.6208 c -0.0452,-0.007 -0.0914,-0.0141 -0.1383,-0.0198 -0.0472,-0.006 -0.0932,-0.008 -0.1383,-0.008 -0.1093,0 -0.2117,0.0218 -0.3077,0.065 -0.0959,0.0433 -0.1797,0.1073 -0.2512,0.1919 -0.0715,0.0846 -0.1279,0.1891 -0.1693,0.3133 -0.0414,0.1241 -0.0621,0.2672 -0.0621,0.429 v 1.3885 h -0.6434 z"
       id="path3764"
       inkscape:connector-curvature="0"
       style="fill:#ffffff" /><path
       class="fil2"
       d="m 51.0642,248.64 c 0,0.4402 -0.1232,0.7686 -0.3697,0.9849 -0.2465,0.2165 -0.6011,0.3246 -1.064,0.3246 -0.1467,0 -0.2944,-0.015 -0.443,-0.0452 -0.1486,-0.0301 -0.2841,-0.0809 -0.4065,-0.1524 -0.1221,-0.0715 -0.2247,-0.1655 -0.3076,-0.2822 -0.0826,-0.1166 -0.1316,-0.2597 -0.1467,-0.429 h 0.6434 c 0.0189,0.0903 0.0508,0.1637 0.096,0.2201 0.0452,0.0565 0.0988,0.1008 0.1609,0.1327 0.0621,0.032 0.1308,0.0528 0.206,0.0621 0.0753,0.009 0.1543,0.0141 0.237,0.0141 0.2597,0 0.4498,-0.0639 0.5702,-0.1919 0.1203,-0.1279 0.1806,-0.3123 0.1806,-0.5532 v -0.4458 h -0.0113 c -0.0903,0.1618 -0.2135,0.2879 -0.3697,0.3781 -0.1561,0.0904 -0.3246,0.1355 -0.5052,0.1355 -0.2333,0 -0.4318,-0.0404 -0.5955,-0.1214 -0.1637,-0.0809 -0.2991,-0.1918 -0.4064,-0.333 -0.1072,-0.1411 -0.1853,-0.3038 -0.2342,-0.4883 -0.0489,-0.1843 -0.0734,-0.3818 -0.0734,-0.5926 0,-0.1956 0.0302,-0.3819 0.0903,-0.5588 0.0602,-0.1769 0.1467,-0.3321 0.2596,-0.4657 0.1129,-0.1335 0.2512,-0.2398 0.4149,-0.3188 0.1637,-0.0791 0.349,-0.1186 0.556,-0.1186 0.1844,0 0.3538,0.0386 0.508,0.1157 0.1542,0.0771 0.2727,0.1985 0.3556,0.3641 h 0.0113 v -0.4008 h 0.6434 z m -1.428,-0.3557 c 0.143,0 0.2644,-0.029 0.3641,-0.0874 0.0998,-0.0583 0.1806,-0.1355 0.2427,-0.2314 0.0621,-0.096 0.1072,-0.2051 0.1354,-0.3274 0.0283,-0.1222 0.0424,-0.2456 0.0424,-0.3697 0,-0.1242 -0.0151,-0.2446 -0.0452,-0.3612 -0.0301,-0.1167 -0.0762,-0.2202 -0.1383,-0.3104 -0.0621,-0.0904 -0.1429,-0.1618 -0.2427,-0.2145 -0.0998,-0.0528 -0.2191,-0.0791 -0.3584,-0.0791 -0.1429,0 -0.2634,0.0301 -0.3613,0.0902 -0.0978,0.0603 -0.1768,0.1384 -0.237,0.2344 -0.0602,0.0959 -0.1035,0.2051 -0.1298,0.3274 -0.0264,0.1222 -0.0396,0.2436 -0.0396,0.364 0,0.1204 0.0152,0.238 0.0452,0.3528 0.0301,0.1148 0.0762,0.2173 0.1383,0.3076 0.0621,0.0903 0.1411,0.1637 0.2371,0.2202 0.0959,0.0563 0.2116,0.0845 0.3471,0.0845 z"
       id="path3766"
       inkscape:connector-curvature="0"
       style="fill:#ffffff" /><path
       class="fil2"
       d="m 52.0012,245.874 h 0.604 v 0.5644 h 0.0113 c 0.0188,-0.079 0.0555,-0.156 0.11,-0.2313 0.0546,-0.0753 0.1205,-0.144 0.1976,-0.2061 0.0772,-0.062 0.1627,-0.1119 0.2568,-0.1495 0.0942,-0.0376 0.1901,-0.0565 0.2879,-0.0565 0.0752,0 0.127,0.002 0.1552,0.006 0.0282,0.004 0.0574,0.008 0.0875,0.0114 v 0.6208 c -0.0452,-0.007 -0.0913,-0.0141 -0.1383,-0.0198 -0.047,-0.006 -0.0931,-0.008 -0.1383,-0.008 -0.1091,0 -0.2117,0.0218 -0.3076,0.065 -0.096,0.0433 -0.1796,0.1073 -0.2512,0.1919 -0.0714,0.0846 -0.1279,0.1891 -0.1693,0.3133 -0.0414,0.1241 -0.0621,0.2672 -0.0621,0.429 v 1.3885 h -0.6435 z"
       id="path3768"
       inkscape:connector-curvature="0"
       style="fill:#ffffff" /><path
       class="fil2"
       d="m 55.5115,248.872 c -0.2333,0 -0.4413,-0.0386 -0.6237,-0.1157 -0.1825,-0.0771 -0.3368,-0.1835 -0.4629,-0.3189 -0.126,-0.1355 -0.2219,-0.2972 -0.2878,-0.4854 -0.0659,-0.1882 -0.0988,-0.3951 -0.0988,-0.6209 0,-0.222 0.0329,-0.427 0.0988,-0.6152 0.0659,-0.1882 0.1618,-0.35 0.2878,-0.4855 0.1261,-0.1355 0.2804,-0.2418 0.4629,-0.3189 0.1824,-0.0771 0.3904,-0.1157 0.6237,-0.1157 0.2333,0 0.4412,0.0386 0.6237,0.1157 0.1825,0.0771 0.3367,0.1834 0.4628,0.3189 0.126,0.1355 0.222,0.2973 0.2879,0.4855 0.0658,0.1881 0.0987,0.3932 0.0987,0.6152 0,0.2258 -0.0329,0.4327 -0.0987,0.6209 -0.0659,0.1882 -0.1619,0.3499 -0.2879,0.4854 -0.1261,0.1354 -0.2803,0.2418 -0.4628,0.3189 -0.1825,0.0771 -0.3905,0.1157 -0.6237,0.1157 z m 0,-0.508 c 0.1429,0 0.2671,-0.0301 0.3725,-0.0904 0.1054,-0.0601 0.1919,-0.1391 0.2597,-0.2369 0.0677,-0.0979 0.1175,-0.2079 0.1495,-0.3302 0.032,-0.1223 0.048,-0.2475 0.048,-0.3754 0,-0.1242 -0.0161,-0.2484 -0.048,-0.3726 -0.032,-0.1241 -0.0818,-0.2342 -0.1495,-0.3301 -0.0678,-0.096 -0.1543,-0.1741 -0.2597,-0.2344 -0.1054,-0.0601 -0.2296,-0.0902 -0.3725,-0.0902 -0.143,0 -0.2672,0.0301 -0.3725,0.0902 -0.1054,0.0603 -0.1919,0.1384 -0.2597,0.2344 -0.0677,0.0959 -0.1176,0.206 -0.1496,0.3301 -0.032,0.1242 -0.0479,0.2484 -0.0479,0.3726 0,0.1279 0.0159,0.2531 0.0479,0.3754 0.032,0.1223 0.0819,0.2323 0.1496,0.3302 0.0678,0.0978 0.1542,0.1768 0.2597,0.2369 0.1053,0.0603 0.2295,0.0904 0.3725,0.0904 z"
       id="path3770"
       inkscape:connector-curvature="0"
       style="fill:#ffffff" /><path
       class="fil2"
       d="m 60.6535,248.793 h -0.6322 v -0.4064 H 60.01 c -0.079,0.1468 -0.1966,0.2644 -0.3528,0.3528 -0.1561,0.0884 -0.3151,0.1326 -0.477,0.1326 -0.3838,0 -0.6612,-0.095 -0.8324,-0.285 -0.1713,-0.19 -0.2569,-0.477 -0.2569,-0.8609 v -1.8513 h 0.6435 v 1.7892 c 0,0.2561 0.0489,0.4367 0.1467,0.5419 0.0979,0.1054 0.2352,0.1581 0.412,0.1581 0.1355,0 0.2484,-0.0206 0.3387,-0.0621 0.0903,-0.0413 0.1637,-0.0968 0.2201,-0.1664 0.0565,-0.0697 0.097,-0.1534 0.1214,-0.2512 0.0245,-0.0979 0.0367,-0.2033 0.0367,-0.3162 v -1.6933 h 0.6435 z"
       id="path3772"
       inkscape:connector-curvature="0"
       style="fill:#ffffff" /><path
       class="fil2"
       d="m 61.6263,245.874 h 0.6096 v 0.3951 h 0.0114 c 0.0902,-0.1693 0.2163,-0.2906 0.3781,-0.364 0.1618,-0.0734 0.3368,-0.1101 0.5249,-0.1101 0.2296,0 0.4299,0.0404 0.6011,0.1214 0.1712,0.0809 0.3132,0.1918 0.4262,0.333 0.1129,0.1411 0.1975,0.3057 0.2539,0.4939 0.0565,0.1882 0.0847,0.3894 0.0847,0.6039 0,0.1957 -0.0254,0.3858 -0.0762,0.5701 -0.0508,0.1844 -0.1279,0.3471 -0.2314,0.4882 -0.1034,0.1411 -0.2343,0.2541 -0.3923,0.3387 -0.1581,0.0846 -0.3443,0.127 -0.5588,0.127 -0.094,0 -0.1881,-0.008 -0.2822,-0.0254 -0.094,-0.017 -0.1843,-0.0442 -0.2709,-0.0818 -0.0866,-0.0376 -0.1665,-0.0856 -0.2399,-0.144 -0.0733,-0.0583 -0.1345,-0.127 -0.1834,-0.206 h -0.0113 v 1.4563 h -0.6435 z m 2.2465,1.462 c 0,-0.1318 -0.017,-0.2597 -0.0509,-0.3839 -0.0338,-0.1242 -0.0846,-0.2342 -0.1524,-0.3302 -0.0677,-0.0959 -0.1524,-0.1731 -0.254,-0.2314 -0.1015,-0.0584 -0.2181,-0.0875 -0.3499,-0.0875 -0.2709,0 -0.475,0.0941 -0.6124,0.2822 -0.1373,0.1882 -0.206,0.4384 -0.206,0.7508 1e-4,0.1466 0.0179,0.2831 0.0536,0.4091 0.0359,0.1261 0.0894,0.2343 0.1609,0.3246 0.0715,0.0903 0.1571,0.1618 0.2568,0.2144 0.0997,0.0528 0.2154,0.0791 0.3471,0.0791 0.1468,0 0.2709,-0.0301 0.3725,-0.0904 0.1017,-0.0601 0.1854,-0.1381 0.2512,-0.2341 0.0659,-0.096 0.1129,-0.2051 0.1411,-0.3274 0.0283,-0.1223 0.0424,-0.2474 0.0424,-0.3753 z"
       id="path3774"
       inkscape:connector-curvature="0"
       style="fill:#ffffff" /><path
       class="fil2"
       d="m 69.1873,247.077 c -0.0075,-0.1016 -0.0292,-0.1994 -0.065,-0.2936 -0.0356,-0.094 -0.0846,-0.1758 -0.1467,-0.2454 -0.0621,-0.0697 -0.1373,-0.1261 -0.2258,-0.1695 -0.0884,-0.0431 -0.1872,-0.0648 -0.2963,-0.0648 -0.1128,0 -0.2154,0.0197 -0.3076,0.0593 -0.0921,0.0395 -0.1712,0.094 -0.2371,0.1637 -0.0658,0.0696 -0.1185,0.1515 -0.158,0.2455 -0.0396,0.0941 -0.0611,0.1957 -0.065,0.3048 z m -1.5015,0.4233 c 0,0.1129 0.016,0.2221 0.048,0.3274 0.0321,0.1053 0.08,0.1976 0.144,0.2766 0.064,0.079 0.1449,0.142 0.2427,0.1891 0.0979,0.047 0.2145,0.0705 0.3499,0.0705 0.1883,0 0.3396,-0.0404 0.4544,-0.1213 0.1148,-0.0809 0.2004,-0.2023 0.2568,-0.3642 h 0.6096 c -0.0338,0.1582 -0.0922,0.2992 -0.1749,0.4234 -0.0829,0.1242 -0.1826,0.2286 -0.2992,0.3133 -0.1167,0.0847 -0.2474,0.1487 -0.3923,0.1919 -0.1448,0.0433 -0.2963,0.0649 -0.4544,0.0649 -0.2295,0 -0.4327,-0.0376 -0.6096,-0.1129 -0.1768,-0.0752 -0.3264,-0.1806 -0.4487,-0.3161 -0.1222,-0.1354 -0.2145,-0.2972 -0.2765,-0.4854 -0.0621,-0.1881 -0.0932,-0.3951 -0.0932,-0.6208 0,-0.207 0.033,-0.4037 0.0988,-0.59 0.0659,-0.1861 0.1599,-0.3499 0.2822,-0.491 0.1223,-0.1412 0.27,-0.253 0.443,-0.3358 0.1732,-0.0828 0.3688,-0.1242 0.5871,-0.1242 0.2296,0 0.4356,0.048 0.618,0.144 0.1825,0.0959 0.334,0.2229 0.4544,0.381 0.1204,0.158 0.2079,0.3396 0.2625,0.5446 0.0546,0.2051 0.0687,0.4168 0.0423,0.635 z"
       id="path3776"
       inkscape:connector-curvature="0"
       style="fill:#ffffff" /><polygon
       class="fil2"
       points="71.4339,248.793 70.6493,248.793 70.6493,248.031 71.4339,248.031 "
       id="polygon3778"
       style="fill:#ffffff" /><polygon
       class="fil2"
       points="73.8242,247.952 73.8356,247.952 74.8797,244.762 75.5853,244.762 74.208,248.793 73.4235,248.793 72.0801,244.762 72.814,244.762 "
       id="polygon3780"
       style="fill:#ffffff" /><polygon
       class="fil2"
       points="76.3872,248.793 75.6026,248.793 75.6026,248.031 76.3872,248.031 "
       id="polygon3782"
       style="fill:#ffffff" /></g></svg>